<svg data-v-423bf9ae="" xmlns="http://www.w3.org/2000/svg" viewBox="0 0 574.4602824740682 60"><!----><!----><!----><g data-v-423bf9ae="" id="5e9a76d7-054c-4bc7-99ab-dc92174f309e" transform="matrix(6.109979823280842,0,0,6.109979823280842,-1.5274993215164159,-11.670061748471603)"><path d="M3.82 1.93L3.82 1.93L3.82 1.93Q5.87 1.93 6.41 3.21L6.41 3.21L6.41 3.21Q6.56 3.53 6.56 3.63L6.56 3.63L5.69 3.63L5.69 3.89L6.62 3.89L6.62 3.88L6.62 3.88Q6.62 3.81 6.56 3.63L6.56 3.63L8.13 3.63L8.13 3.89L6.64 3.89L6.64 3.91L6.64 3.91Q6.75 4.46 6.80 5.09L6.80 5.09L6.80 5.09Q6.80 5.13 5.00 5.22L5.00 5.22L5.00 5.21L5.00 5.21Q5.00 3.58 3.88 3.58L3.88 3.58L3.69 3.58L3.69 3.58Q2.85 3.58 2.67 4.29L2.67 4.29L2.67 4.29Q2.52 4.89 2.52 5.87L2.52 5.87L2.52 7.20L2.50 7.40L1.88 7.40L1.88 7.71L2.50 7.71L2.50 10.08L5.14 10.08L5.14 7.62L6.65 7.62L6.65 10.08L5.81 10.08L5.81 11.60L4.05 11.60L4.05 11.73L2.69 11.73L2.69 11.60L1.30 11.60L1.30 10.84L2.22 10.84L2.22 10.51L0.84 10.51L0.84 9.39L0.25 9.39L0.25 8.01L0.56 8.01L0.56 8.01Q0.54 7.15 0.54 6.66L0.54 6.66L0.54 6.66Q0.54 4.42 0.76 3.84L0.76 3.84L0.76 3.84Q0.96 3.17 1.42 2.69L1.42 2.69L1.42 2.69Q2.23 1.93 3.82 1.93ZM2.63 9.59L2.63 9.59L2.71 9.59L2.71 9.93L2.91 9.93L2.91 10.04L2.63 10.04L2.63 10.04Q2.60 10.04 2.60 10.00L2.60 10.00L2.60 9.63L2.60 9.63Q2.60 9.59 2.63 9.59ZM4.69 9.60L4.69 9.59L4.79 9.59L4.79 9.59Q4.87 9.66 4.87 9.72L4.87 9.72L4.87 9.72Q4.89 9.72 4.99 9.59L4.99 9.59L5.07 9.59L5.07 9.63L5.07 9.63Q4.96 9.78 4.96 9.84L4.96 9.84L4.96 9.84Q4.98 9.84 5.09 10.01L5.09 10.01L5.09 10.04L4.99 10.04L4.87 9.91L4.87 9.91Q4.81 10.02 4.78 10.04L4.78 10.04L4.68 10.04L4.68 10.04Q4.71 9.97 4.83 9.80L4.83 9.80L4.69 9.60ZM6.04 10.19L6.04 10.19L6.04 10.19Q6.21 10.23 6.21 10.28L6.21 10.28L6.21 10.35L6.14 10.35L6.08 10.28L6.01 10.28L6.01 10.28Q5.97 10.29 5.97 10.32L5.97 10.32L5.97 10.35L5.97 10.35Q6.23 10.40 6.23 10.46L6.23 10.46L6.23 10.51L6.23 10.51Q6.23 10.64 6.08 10.64L6.08 10.64L6.01 10.64L6.01 10.64Q5.92 10.64 5.87 10.55L5.87 10.55L5.87 10.48L5.96 10.48L5.96 10.48Q5.96 10.56 6.06 10.56L6.06 10.56L6.08 10.56L6.08 10.56Q6.10 10.56 6.13 10.51L6.13 10.51L6.13 10.51Q6.13 10.49 5.89 10.40L5.89 10.40L5.88 10.36L5.88 10.28L5.88 10.28Q5.88 10.23 6.04 10.19ZM11.00 1.95L11.00 1.95L11.00 1.95Q13.10 1.95 13.77 3.42L13.77 3.42L13.77 3.42Q14.14 4.14 14.14 6.19L14.14 6.19L14.14 6.23L13.42 6.23L13.42 6.56L14.14 6.56L14.14 10.10L13.67 10.10L13.67 11.37L12.71 11.37L12.71 11.73L9.39 11.73L9.39 11.37L8.99 11.37L8.99 10.10L8.13 10.10L8.13 9.10L8.64 9.10L8.64 8.57L8.13 8.57L8.13 9.10L6.92 9.10L6.92 8.57L7.84 8.57L7.84 8.57Q7.83 7.38 7.83 6.74L7.83 6.74L7.83 5.91L7.83 5.91Q7.83 3.58 8.61 2.80L8.61 2.80L8.61 2.80Q9.33 1.95 11.00 1.95ZM9.80 5.32L9.80 5.32L9.82 5.32L9.80 5.35L9.80 6.23L9.07 6.23L9.07 6.56L9.80 6.56L9.80 6.56Q9.79 8.67 9.79 9.75L9.79 9.75L9.79 10.10L11.42 10.10L11.42 9.56L12.17 9.56L12.17 9.54L12.17 9.54Q12.17 8.54 12.16 6.75L12.16 6.75L12.16 6.75Q12.16 6.68 12.17 6.38L12.17 6.38L12.17 6.38Q12.17 4.45 11.95 4.01L11.95 4.01L11.95 4.01Q11.72 3.58 11.09 3.58L11.09 3.58L10.86 3.58L10.86 3.58Q10.11 3.58 9.93 4.24L9.93 4.24L9.93 4.24Q9.85 4.56 9.80 5.32ZM14.14 6.56L14.14 6.23L15.32 6.23L15.32 6.56L14.14 6.56ZM15.35 6.62L15.35 1.96L18.33 1.96L18.33 1.96Q20.19 1.96 20.89 3.22L20.89 3.22L20.89 3.22Q21.49 4.20 21.49 6.49L21.49 6.49L21.79 6.49L21.79 8.83L18.89 8.83L18.89 8.56L19.80 8.56L19.80 6.49L19.53 6.49L19.53 5.63L19.53 5.63Q19.53 4.19 18.89 3.79L18.89 3.79L18.89 3.79Q18.51 3.58 17.68 3.58L17.68 3.58L17.27 3.58L17.27 6.44L17.55 6.44L17.55 8.83L15.59 8.83L15.59 6.62L15.35 6.62ZM14.49 9.13L14.49 8.83L15.37 8.83L15.37 9.13L17.55 9.13L17.55 9.78L18.89 9.78L18.89 9.13L21.79 9.13L21.79 9.78L19.80 9.78L19.80 11.52L17.55 11.52L17.55 11.73L15.39 11.73L15.39 11.73Q15.35 11.73 15.35 11.70L15.35 11.70L15.35 9.13L14.49 9.13ZM17.55 9.13L17.55 8.83L18.89 8.83L18.89 9.13L17.55 9.13ZM21.79 9.13L21.79 8.83L23.71 8.83L23.71 9.13L21.79 9.13ZM22.63 6.80L22.63 2.00L27.43 2.00L27.43 3.60L27.43 3.60Q27.43 3.63 27.39 3.63L27.39 3.63L24.55 3.63L24.55 5.74L27.10 5.74L27.10 5.76L27.10 5.76Q27.10 5.84 27.07 6.79L27.07 6.79L27.07 6.79Q27.05 6.79 27.05 6.80L27.05 6.80L27.17 6.80L27.17 7.29L24.96 7.29L24.96 9.29L24.36 9.29L24.36 9.49L24.96 9.49L24.96 10.10L27.46 10.10L27.46 10.32L27.26 10.32L27.26 11.52L24.27 11.52L24.27 11.73L22.85 11.73L22.85 8.24L22.63 8.24L22.63 7.01L21.08 7.01L21.08 6.80L22.63 6.80ZM23.45 6.80L22.65 6.80L22.65 7.01L23.45 7.01L23.45 6.80ZM35.49 1.93L35.49 1.93L35.49 1.93Q37.54 1.93 38.08 3.21L38.08 3.21L38.08 3.21Q38.23 3.53 38.23 3.63L38.23 3.63L37.37 3.63L37.37 3.89L38.29 3.89L38.29 3.88L38.29 3.88Q38.29 3.81 38.23 3.63L38.23 3.63L39.81 3.63L39.81 3.89L38.31 3.89L38.31 3.91L38.31 3.91Q38.42 4.46 38.47 5.09L38.47 5.09L38.47 5.09Q38.47 5.13 36.67 5.22L36.67 5.22L36.67 5.21L36.67 5.21Q36.67 3.58 35.55 3.58L35.55 3.58L35.36 3.58L35.36 3.58Q34.52 3.58 34.34 4.29L34.34 4.29L34.34 4.29Q34.19 4.89 34.19 5.87L34.19 5.87L34.19 7.20L34.17 7.40L33.55 7.40L33.55 7.71L34.17 7.71L34.17 10.08L36.81 10.08L36.81 7.62L38.32 7.62L38.32 10.08L37.48 10.08L37.48 11.60L35.72 11.60L35.72 11.73L34.36 11.73L34.36 11.60L32.97 11.60L32.97 10.84L33.89 10.84L33.89 10.51L32.51 10.51L32.51 9.39L31.92 9.39L31.92 8.01L32.23 8.01L32.23 8.01Q32.21 7.15 32.21 6.66L32.21 6.66L32.21 6.66Q32.21 4.42 32.43 3.84L32.43 3.84L32.43 3.84Q32.63 3.17 33.09 2.69L33.09 2.69L33.09 2.69Q33.90 1.93 35.49 1.93ZM34.30 9.59L34.30 9.59L34.38 9.59L34.38 9.93L34.58 9.93L34.58 10.04L34.30 10.04L34.30 10.04Q34.28 10.04 34.28 10.00L34.28 10.00L34.28 9.63L34.28 9.63Q34.28 9.59 34.30 9.59ZM36.36 9.60L36.36 9.59L36.46 9.59L36.46 9.59Q36.54 9.66 36.54 9.72L36.54 9.72L36.54 9.72Q36.56 9.72 36.66 9.59L36.66 9.59L36.74 9.59L36.74 9.63L36.74 9.63Q36.63 9.78 36.63 9.84L36.63 9.84L36.63 9.84Q36.65 9.84 36.76 10.01L36.76 10.01L36.76 10.04L36.66 10.04L36.54 9.91L36.54 9.91Q36.48 10.02 36.45 10.04L36.45 10.04L36.35 10.04L36.35 10.04Q36.38 9.97 36.50 9.80L36.50 9.80L36.36 9.60ZM37.71 10.19L37.71 10.19L37.71 10.19Q37.88 10.23 37.88 10.28L37.88 10.28L37.88 10.35L37.81 10.35L37.75 10.28L37.68 10.28L37.68 10.28Q37.65 10.29 37.65 10.32L37.65 10.32L37.65 10.35L37.65 10.35Q37.90 10.40 37.90 10.46L37.90 10.46L37.90 10.51L37.90 10.51Q37.90 10.64 37.75 10.64L37.75 10.64L37.68 10.64L37.68 10.64Q37.59 10.64 37.54 10.55L37.54 10.55L37.54 10.48L37.63 10.48L37.63 10.48Q37.63 10.56 37.73 10.56L37.73 10.56L37.75 10.56L37.75 10.56Q37.77 10.56 37.80 10.51L37.80 10.51L37.80 10.51Q37.80 10.49 37.56 10.40L37.56 10.40L37.55 10.36L37.55 10.28L37.55 10.28Q37.55 10.23 37.71 10.19ZM39.07 6.64L39.07 1.96L41.01 1.96L41.01 5.85L42.96 5.85L42.96 1.96L44.60 1.96L44.60 7.51L43.93 7.51L43.93 7.75L44.60 7.75L44.60 11.73L42.99 11.73L42.99 11.73Q42.96 11.73 42.96 11.70L42.96 11.70L42.96 7.48L41.01 7.48L41.01 11.70L41.01 11.70Q41.01 11.73 40.97 11.73L40.97 11.73L39.35 11.73L39.35 6.64L39.07 6.64ZM44.60 7.75L44.60 7.51L45.47 7.51L45.47 7.75L44.60 7.75ZM45.45 7.49L45.45 1.96L48.80 1.96L48.80 1.96Q50.48 1.96 50.98 3.14L50.98 3.14L50.98 3.14Q51.19 3.75 51.19 4.53L51.19 4.53L51.19 4.94L51.19 4.94Q51.19 6.36 50.57 7.11L50.57 7.11L49.85 7.11L49.85 7.47L50.94 7.47L50.94 9.81L50.30 9.81L50.30 10.17L51.27 10.17L51.27 11.55L49.23 11.55L49.23 9.34L48.45 9.34L48.45 7.92L47.08 7.92L47.08 10.34L47.37 10.34L47.37 11.73L45.49 11.73L45.49 11.73Q45.45 11.73 45.45 11.70L45.45 11.70L45.45 7.77L46.29 7.77L46.29 7.49L45.45 7.49ZM48.18 3.55L47.37 3.55L47.37 6.31L47.84 6.31L47.84 6.31Q48.88 6.31 49.05 6.11L49.05 6.11L49.05 6.11Q49.22 6.00 49.31 5.67L49.31 5.67L50.04 5.67L50.04 5.32L49.38 5.32L49.38 5.35L49.38 5.35Q49.33 5.67 49.30 5.67L49.30 5.67L48.36 5.67L48.36 5.32L49.35 5.32L49.35 5.32Q49.38 5.32 49.38 5.29L49.38 5.29L49.38 5.29Q49.40 4.87 49.40 4.81L49.40 4.81L49.40 4.81Q49.40 3.90 49.08 3.69L49.08 3.69L49.08 3.69Q48.84 3.55 48.18 3.55L48.18 3.55ZM55.28 1.95L55.28 1.95L55.28 1.95Q57.38 1.95 58.04 3.42L58.04 3.42L58.04 3.42Q58.42 4.14 58.42 6.19L58.42 6.19L58.42 6.23L57.70 6.23L57.70 6.56L58.42 6.56L58.42 10.10L57.94 10.10L57.94 11.37L56.99 11.37L56.99 11.73L53.67 11.73L53.67 11.37L53.27 11.37L53.27 10.10L52.41 10.10L52.41 9.10L52.92 9.10L52.92 8.57L52.41 8.57L52.41 9.10L51.20 9.10L51.20 8.57L52.12 8.57L52.12 8.57Q52.10 7.38 52.10 6.74L52.10 6.74L52.10 5.91L52.10 5.91Q52.10 3.58 52.89 2.80L52.89 2.80L52.89 2.80Q53.61 1.95 55.28 1.95ZM54.08 5.32L54.08 5.32L54.10 5.32L54.08 5.35L54.08 6.23L53.35 6.23L53.35 6.56L54.08 6.56L54.08 6.56Q54.07 8.67 54.07 9.75L54.07 9.75L54.07 10.10L55.70 10.10L55.70 9.56L56.45 9.56L56.45 9.54L56.45 9.54Q56.45 8.54 56.44 6.75L56.44 6.75L56.44 6.75Q56.44 6.68 56.45 6.38L56.45 6.38L56.45 6.38Q56.45 4.45 56.23 4.01L56.23 4.01L56.23 4.01Q55.99 3.58 55.37 3.58L55.37 3.58L55.13 3.58L55.13 3.58Q54.39 3.58 54.21 4.24L54.21 4.24L54.21 4.24Q54.13 4.56 54.08 5.32ZM58.42 6.56L58.42 6.23L59.60 6.23L59.60 6.56L58.42 6.56ZM59.43 1.96L59.43 1.96L61.43 1.96L61.43 1.96Q61.47 1.96 62.07 3.53L62.07 3.53L62.07 3.53Q62.12 3.59 63.33 6.62L63.33 6.62L63.84 6.62L63.84 1.96L65.58 1.96L65.58 7.51L65.78 7.51L65.78 9.67L65.08 9.67L65.08 10.08L65.78 10.08L65.78 11.37L63.16 11.37L63.16 9.73L62.70 9.73L62.70 9.73Q61.76 7.44 61.43 6.56L61.43 6.56L61.43 4.92L61.18 4.92L61.18 9.93L60.79 9.93L60.79 11.66L59.15 11.66L59.15 7.94L59.45 7.94L59.45 7.92L59.45 7.92Q59.43 3.09 59.43 1.96ZM63.29 6.62L62.37 6.62L62.37 6.98L63.46 6.98L63.46 6.98Q63.33 6.62 63.29 6.62L63.29 6.62ZM64.65 6.62L63.85 6.62L63.85 6.98L63.47 6.98L63.47 6.98Q63.82 7.85 63.89 8.11L63.89 8.11L63.90 8.11L63.90 8.07L63.90 8.07Q63.85 7.18 63.85 6.98L63.85 6.98L64.65 6.98L64.65 6.62ZM63.16 11.73L63.16 11.55L66.33 11.55L66.33 11.73L63.16 11.73ZM67.03 1.93L67.03 1.93L68.88 1.93L68.88 1.93Q68.91 1.94 68.91 1.97L68.91 1.97L68.91 6.73L68.91 6.73Q68.91 6.76 68.88 6.76L68.88 6.76L68.66 6.76L68.66 11.70L68.66 11.70Q68.66 11.73 68.63 11.73L68.63 11.73L67.03 11.73L67.03 11.73Q67.00 11.73 67.00 11.70L67.00 11.70L67.00 6.64L66.51 6.64L66.51 6.64Q66.47 6.64 66.47 6.61L66.47 6.61L66.47 6.40L66.47 6.40Q66.48 6.36 66.51 6.36L66.51 6.36L67.00 6.36L67.00 1.97L67.00 1.97Q67.01 1.93 67.03 1.93ZM67.96 6.36L67.01 6.36L67.01 6.64L67.96 6.64L67.96 6.36ZM73.02 1.93L73.02 1.93L73.02 1.93Q75.07 1.93 75.60 3.22L75.60 3.22L75.60 3.22Q75.76 3.53 75.76 3.63L75.76 3.63L74.89 3.63L74.89 3.89L75.82 3.89L75.82 3.88L75.82 3.88Q75.82 3.81 75.76 3.63L75.76 3.63L77.33 3.63L77.33 3.89L75.84 3.89L75.84 3.91L75.84 3.91Q75.95 4.46 76.00 5.09L76.00 5.09L76.00 5.09Q76.00 5.13 74.20 5.22L74.20 5.22L74.20 5.21L74.20 5.21Q74.20 3.58 73.09 3.58L73.09 3.58L72.88 3.58L72.88 3.58Q72.05 3.58 71.87 4.29L71.87 4.29L71.87 4.29Q71.72 4.89 71.72 5.87L71.72 5.87L71.72 7.21L71.70 7.40L71.07 7.40L71.07 7.71L71.70 7.71L71.70 10.08L74.33 10.08L74.33 7.62L75.85 7.62L75.85 10.08L75.01 10.08L75.01 11.60L73.25 11.60L73.25 11.73L71.89 11.73L71.89 11.60L70.50 11.60L70.50 10.84L71.42 10.84L71.42 10.51L70.03 10.51L70.03 9.39L69.45 9.39L69.45 8.00L69.76 8.00L69.76 8.00Q69.74 7.16 69.74 6.66L69.74 6.66L69.74 6.66Q69.74 4.42 69.95 3.84L69.95 3.84L69.95 3.84Q70.16 3.17 70.62 2.69L70.62 2.69L70.62 2.69Q71.42 1.93 73.02 1.93ZM76.36 8.85L76.36 1.91L78.31 1.91L78.31 5.94L77.93 5.94L77.93 10.10L80.83 10.10L80.83 10.97L80.26 10.97L80.26 11.17L80.83 11.17L80.83 11.73L78.96 11.73L78.96 11.58L76.38 11.58L76.38 11.58Q76.36 11.42 76.36 11.33L76.36 11.33L76.36 9.14L76.86 9.14L76.86 8.85L76.36 8.85ZM80.83 11.17L80.83 10.97L81.55 10.97L81.55 11.17L80.83 11.17ZM82.22 6.80L82.22 2.00L87.01 2.00L87.01 3.60L87.01 3.60Q87.01 3.63 86.98 3.63L86.98 3.63L84.14 3.63L84.14 5.74L86.69 5.74L86.69 5.76L86.69 5.76Q86.69 5.84 86.66 6.79L86.66 6.79L86.66 6.79Q86.64 6.79 86.64 6.80L86.64 6.80L86.75 6.80L86.75 7.29L84.55 7.29L84.55 9.29L83.95 9.29L83.95 9.49L84.55 9.49L84.55 10.10L87.05 10.10L87.05 10.32L86.85 10.32L86.85 11.52L83.86 11.52L83.86 11.73L82.43 11.73L82.43 8.24L82.22 8.24L82.22 7.01L80.66 7.01L80.66 6.80L82.22 6.80ZM83.04 6.80L82.24 6.80L82.24 7.01L83.04 7.01L83.04 6.80ZM91.12 1.96L91.12 1.96L91.12 1.96Q92.74 1.96 93.30 3.01L93.30 3.01L93.30 3.01Q93.68 3.80 93.68 4.56L93.68 4.56L93.67 4.56L93.67 4.56Q92.55 4.66 92.14 4.66L92.14 4.66L92.14 4.66Q92.14 4.12 91.81 3.75L91.81 3.75L91.81 3.75Q91.49 3.57 91.23 3.57L91.23 3.57L90.95 3.57L90.95 3.57Q90.25 3.57 90.10 4.11L90.10 4.11L90.10 4.11Q90.07 4.27 90.07 4.35L90.07 4.35L90.07 4.50L90.07 4.50Q90.07 5.26 90.88 5.61L90.88 5.61L90.88 5.61Q90.95 5.67 92.00 6.12L92.00 6.12L92.00 6.12Q92.56 6.38 93.04 6.76L93.04 6.76L93.04 6.77L91.32 6.77L91.32 6.97L93.58 6.97L93.58 7.24L93.87 7.24L93.87 10.21L93.31 10.21L93.31 11.73L88.96 11.73L88.96 10.21L87.94 10.21L87.94 9.18L88.52 9.18L88.52 8.83L87.94 8.83L87.94 8.59L89.93 8.59L89.93 10.21L91.96 10.21L91.96 7.77L90.44 7.77L90.44 6.97L88.55 6.97L88.55 6.77L89.46 6.77L89.46 6.76L89.46 6.76Q88.26 5.96 88.26 4.50L88.26 4.50L88.26 4.37L88.26 4.37Q88.26 3.14 89.01 2.51L89.01 2.51L89.01 2.51Q89.69 1.96 91.12 1.96ZM93.58 6.97L93.58 6.77L94.27 6.77L94.27 6.97L93.58 6.97ZM87.28 9.18L87.28 8.83L87.94 8.83L87.94 9.18L87.28 9.18Z"></path></g><!----><!----></svg>