<svg xmlns="http://www.w3.org/2000/svg" xmlns:xlink="http://www.w3.org/1999/xlink" width="500" zoomAndPan="magnify" viewBox="0 0 375 374.999991" height="500" preserveAspectRatio="xMidYMid meet" version="1.0"><defs><clipPath id="34ece39b24"><path d="M 41.726562 41.726562 L 333.476562 41.726562 L 333.476562 333.476562 L 41.726562 333.476562 Z M 41.726562 41.726562 " clip-rule="nonzero"/></clipPath></defs><path fill="currentColor" d="M 183.8125 88.671875 L 183.8125 65.941406 C 183.8125 64.023438 185.367188 62.46875 187.300781 62.46875 L 187.710938 62.46875 C 189.640625 62.46875 191.199219 64.023438 191.199219 65.941406 L 191.199219 88.671875 C 191.199219 90.59375 189.640625 92.164062 187.710938 92.164062 L 187.300781 92.164062 C 185.367188 92.164062 183.8125 90.59375 183.8125 88.671875 " fill-opacity="1" fill-rule="nonzero"/><path fill="currentColor" d="M 193.34375 126.539062 L 181.667969 126.523438 L 181.683594 113.914062 L 193.34375 113.914062 Z M 200.140625 130.222656 C 200.140625 130.210938 200.140625 130.210938 200.140625 130.210938 L 200.140625 110.242188 C 200.140625 108.21875 198.628906 106.570312 196.742188 106.570312 L 178.496094 106.570312 C 178.433594 106.558594 178.359375 106.558594 178.285156 106.558594 C 177.757812 106.558594 177.242188 106.691406 176.789062 106.917969 C 175.65625 107.523438 174.871094 108.777344 174.871094 110.242188 C 174.871094 110.363281 174.871094 110.46875 174.886719 110.589844 L 174.871094 130.195312 C 174.855469 132.234375 176.382812 133.863281 178.253906 133.878906 L 196.742188 133.894531 C 198.613281 133.894531 200.140625 132.25 200.140625 130.222656 " fill-opacity="1" fill-rule="nonzero"/><path fill="currentColor" d="M 183.8125 174.492188 L 183.8125 151.777344 C 183.8125 149.859375 185.367188 148.289062 187.300781 148.289062 L 187.710938 148.289062 C 189.640625 148.289062 191.199219 149.859375 191.199219 151.777344 L 191.199219 174.492188 C 191.199219 176.425781 189.640625 177.984375 187.710938 177.984375 L 187.300781 177.984375 C 185.367188 177.984375 183.8125 176.425781 183.8125 174.492188 " fill-opacity="1" fill-rule="nonzero"/><path fill="currentColor" d="M 183.8125 260.328125 L 183.8125 237.613281 C 183.8125 235.679688 185.367188 234.125 187.300781 234.125 L 187.710938 234.125 C 189.640625 234.125 191.199219 235.679688 191.199219 237.613281 L 191.199219 260.328125 C 191.199219 262.261719 189.640625 263.816406 187.710938 263.816406 L 187.300781 263.816406 C 185.367188 263.816406 183.8125 262.261719 183.8125 260.328125 " fill-opacity="1" fill-rule="nonzero"/><path fill="currentColor" d="M 155.886719 82.449219 L 144.195312 82.4375 L 144.210938 69.824219 L 155.886719 69.824219 Z M 162.683594 86.121094 L 162.683594 66.140625 C 162.683594 64.113281 161.15625 62.46875 159.285156 62.46875 L 141.039062 62.46875 C 140.964844 62.46875 140.886719 62.46875 140.8125 62.46875 C 140.285156 62.46875 139.769531 62.589844 139.332031 62.832031 C 138.183594 63.421875 137.398438 64.6875 137.398438 66.140625 C 137.398438 66.261719 137.398438 66.378906 137.414062 66.488281 L 137.398438 86.105469 C 137.398438 88.128906 138.910156 89.777344 140.796875 89.777344 L 159.269531 89.792969 C 161.15625 89.792969 162.683594 88.144531 162.683594 86.121094 " fill-opacity="1" fill-rule="nonzero"/><path fill="currentColor" d="M 155.886719 256.460938 L 144.195312 256.460938 L 144.210938 243.835938 L 155.886719 243.835938 Z M 162.683594 260.148438 C 162.683594 260.148438 162.683594 260.148438 162.683594 260.132812 L 162.683594 240.164062 C 162.683594 238.140625 161.15625 236.496094 159.285156 236.496094 L 141.039062 236.496094 C 140.964844 236.496094 140.886719 236.480469 140.8125 236.480469 C 140.285156 236.480469 139.769531 236.617188 139.332031 236.855469 C 138.183594 237.445312 137.398438 238.699219 137.398438 240.164062 C 137.398438 240.285156 137.398438 240.390625 137.414062 240.511719 L 137.398438 260.117188 C 137.398438 262.15625 138.910156 263.800781 140.796875 263.800781 L 159.269531 263.816406 C 161.15625 263.816406 162.683594 262.171875 162.683594 260.148438 " fill-opacity="1" fill-rule="nonzero"/><path fill="currentColor" d="M 155.886719 169.449219 L 144.195312 169.449219 L 144.210938 156.835938 L 155.886719 156.835938 Z M 162.683594 173.132812 C 162.683594 173.117188 162.683594 173.117188 162.683594 173.117188 L 162.683594 153.152344 C 162.683594 151.128906 161.15625 149.480469 159.285156 149.480469 L 141.039062 149.480469 C 140.964844 149.480469 140.886719 149.464844 140.8125 149.464844 C 140.285156 149.464844 139.769531 149.601562 139.332031 149.84375 C 138.183594 150.433594 137.398438 151.703125 137.398438 153.152344 C 137.398438 153.273438 137.398438 153.378906 137.414062 153.5 L 137.398438 173.117188 C 137.398438 175.144531 138.910156 176.789062 140.796875 176.789062 L 159.269531 176.804688 C 161.15625 176.804688 162.683594 175.15625 162.683594 173.132812 " fill-opacity="1" fill-rule="nonzero"/><path fill="currentColor" d="M 146.339844 131.582031 L 146.339844 108.867188 C 146.339844 106.933594 147.910156 105.378906 149.828125 105.378906 L 150.25 105.378906 C 152.171875 105.378906 153.742188 106.933594 153.742188 108.867188 L 153.742188 131.582031 C 153.742188 133.5 152.171875 135.074219 150.25 135.074219 L 149.828125 135.074219 C 147.910156 135.074219 146.339844 133.5 146.339844 131.582031 " fill-opacity="1" fill-rule="nonzero"/><path fill="currentColor" d="M 108.867188 88.671875 L 108.867188 65.941406 C 108.867188 64.023438 110.4375 62.46875 112.355469 62.46875 L 112.78125 62.46875 C 114.699219 62.46875 116.269531 64.023438 116.269531 65.941406 L 116.269531 88.671875 C 116.269531 90.59375 114.699219 92.164062 112.78125 92.164062 L 112.355469 92.164062 C 110.4375 92.164062 108.867188 90.59375 108.867188 88.671875 " fill-opacity="1" fill-rule="nonzero"/><path fill="currentColor" d="M 118.414062 126.539062 L 106.738281 126.523438 L 106.738281 113.914062 L 118.414062 113.914062 Z M 125.210938 130.222656 C 125.210938 130.210938 125.210938 130.210938 125.210938 130.210938 L 125.210938 110.242188 C 125.210938 108.21875 123.683594 106.570312 121.8125 106.570312 L 103.566406 106.570312 C 103.492188 106.558594 103.414062 106.558594 103.355469 106.558594 C 102.8125 106.558594 102.3125 106.691406 101.859375 106.917969 C 100.710938 107.523438 99.925781 108.777344 99.925781 110.242188 C 99.925781 110.363281 99.941406 110.46875 99.941406 110.589844 L 99.925781 130.195312 C 99.925781 132.234375 101.453125 133.863281 103.324219 133.878906 L 121.8125 133.894531 C 123.683594 133.894531 125.210938 132.25 125.210938 130.222656 " fill-opacity="1" fill-rule="nonzero"/><path fill="currentColor" d="M 108.867188 174.492188 L 108.867188 151.777344 C 108.867188 149.859375 110.4375 148.289062 112.355469 148.289062 L 112.78125 148.289062 C 114.699219 148.289062 116.269531 149.859375 116.269531 151.777344 L 116.269531 174.492188 C 116.269531 176.425781 114.699219 177.984375 112.78125 177.984375 L 112.355469 177.984375 C 110.4375 177.984375 108.867188 176.425781 108.867188 174.492188 " fill-opacity="1" fill-rule="nonzero"/><path fill="currentColor" d="M 108.867188 260.328125 L 108.867188 237.613281 C 108.867188 235.679688 110.4375 234.125 112.355469 234.125 L 112.78125 234.125 C 114.699219 234.125 116.269531 235.679688 116.269531 237.613281 L 116.269531 260.328125 C 116.269531 262.261719 114.699219 263.816406 112.78125 263.816406 L 112.355469 263.816406 C 110.4375 263.816406 108.867188 262.261719 108.867188 260.328125 " fill-opacity="1" fill-rule="nonzero"/><path fill="currentColor" d="M 80.941406 82.449219 L 69.265625 82.4375 L 69.28125 69.824219 L 80.941406 69.824219 Z M 87.738281 86.121094 L 87.738281 66.140625 C 87.738281 64.113281 86.226562 62.46875 84.339844 62.46875 L 66.09375 62.46875 C 66.035156 62.46875 65.957031 62.46875 65.882812 62.46875 C 65.355469 62.46875 64.839844 62.589844 64.386719 62.832031 C 63.253906 63.421875 62.46875 64.6875 62.46875 66.140625 C 62.46875 66.261719 62.46875 66.378906 62.484375 66.488281 L 62.46875 86.105469 C 62.453125 88.128906 63.980469 89.777344 65.851562 89.777344 L 84.339844 89.792969 C 86.210938 89.792969 87.738281 88.144531 87.738281 86.121094 " fill-opacity="1" fill-rule="nonzero"/><path fill="currentColor" d="M 80.941406 256.460938 L 69.265625 256.460938 L 69.28125 243.835938 L 80.941406 243.835938 Z M 87.738281 260.148438 C 87.738281 260.148438 87.738281 260.148438 87.738281 260.132812 L 87.738281 240.164062 C 87.738281 238.140625 86.226562 236.496094 84.339844 236.496094 L 66.09375 236.496094 C 66.035156 236.496094 65.957031 236.480469 65.882812 236.480469 C 65.355469 236.480469 64.839844 236.617188 64.386719 236.855469 C 63.253906 237.445312 62.46875 238.699219 62.46875 240.164062 C 62.46875 240.285156 62.46875 240.390625 62.484375 240.511719 L 62.46875 260.117188 C 62.453125 262.15625 63.980469 263.800781 65.851562 263.800781 L 84.339844 263.816406 C 86.210938 263.816406 87.738281 262.171875 87.738281 260.148438 " fill-opacity="1" fill-rule="nonzero"/><path fill="currentColor" d="M 80.941406 169.449219 L 69.265625 169.449219 L 69.28125 156.835938 L 80.941406 156.835938 Z M 87.738281 173.132812 C 87.738281 173.117188 87.738281 173.117188 87.738281 173.117188 L 87.738281 153.152344 C 87.738281 151.128906 86.226562 149.480469 84.339844 149.480469 L 66.09375 149.480469 C 66.035156 149.480469 65.957031 149.464844 65.882812 149.464844 C 65.355469 149.464844 64.839844 149.601562 64.386719 149.84375 C 63.253906 150.433594 62.46875 151.703125 62.46875 153.152344 C 62.46875 153.273438 62.46875 153.378906 62.484375 153.5 L 62.46875 173.117188 C 62.453125 175.144531 63.980469 176.789062 65.851562 176.789062 L 84.339844 176.804688 C 86.210938 176.804688 87.738281 175.15625 87.738281 173.132812 " fill-opacity="1" fill-rule="nonzero"/><path fill="currentColor" d="M 71.410156 131.582031 L 71.410156 108.867188 C 71.410156 106.933594 72.964844 105.378906 74.898438 105.378906 L 75.308594 105.378906 C 77.242188 105.378906 78.796875 106.933594 78.796875 108.867188 L 78.796875 131.582031 C 78.796875 133.5 77.242188 135.074219 75.308594 135.074219 L 74.898438 135.074219 C 72.964844 135.074219 71.410156 133.5 71.410156 131.582031 " fill-opacity="1" fill-rule="nonzero"/><path fill="currentColor" d="M 193.34375 212.375 L 181.667969 212.359375 L 181.683594 199.746094 L 193.34375 199.746094 Z M 200.140625 216.042969 L 200.140625 196.078125 C 200.140625 194.039062 198.628906 192.390625 196.742188 192.390625 L 178.496094 192.390625 C 178.433594 192.390625 178.359375 192.390625 178.285156 192.390625 C 177.757812 192.390625 177.242188 192.527344 176.789062 192.753906 C 175.65625 193.359375 174.871094 194.613281 174.871094 196.078125 C 174.871094 196.183594 174.871094 196.304688 174.886719 196.410156 L 174.871094 216.027344 C 174.855469 218.050781 176.382812 219.699219 178.253906 219.699219 L 196.742188 219.714844 C 198.613281 219.730469 200.140625 218.082031 200.140625 216.042969 " fill-opacity="1" fill-rule="nonzero"/><path fill="currentColor" d="M 146.339844 217.417969 L 146.339844 194.6875 C 146.339844 192.769531 147.910156 191.214844 149.828125 191.214844 L 150.25 191.214844 C 152.171875 191.214844 153.742188 192.769531 153.742188 194.6875 L 153.742188 217.417969 C 153.742188 219.335938 152.171875 220.90625 150.25 220.90625 L 149.828125 220.90625 C 147.910156 220.90625 146.339844 219.335938 146.339844 217.417969 " fill-opacity="1" fill-rule="nonzero"/><path fill="currentColor" d="M 118.414062 212.375 L 106.738281 212.359375 L 106.738281 199.746094 L 118.414062 199.746094 Z M 125.210938 216.042969 L 125.210938 196.078125 C 125.210938 194.039062 123.683594 192.390625 121.8125 192.390625 L 103.566406 192.390625 C 103.492188 192.390625 103.414062 192.390625 103.355469 192.390625 C 102.8125 192.390625 102.3125 192.527344 101.859375 192.753906 C 100.710938 193.359375 99.925781 194.613281 99.925781 196.078125 C 99.925781 196.183594 99.941406 196.304688 99.941406 196.410156 L 99.925781 216.027344 C 99.925781 218.050781 101.453125 219.699219 103.324219 219.699219 L 121.8125 219.714844 C 123.683594 219.730469 125.210938 218.082031 125.210938 216.042969 " fill-opacity="1" fill-rule="nonzero"/><path fill="currentColor" d="M 71.410156 217.417969 L 71.410156 194.6875 C 71.410156 192.769531 72.964844 191.214844 74.898438 191.214844 L 75.308594 191.214844 C 77.242188 191.214844 78.796875 192.769531 78.796875 194.6875 L 78.796875 217.417969 C 78.796875 219.335938 77.242188 220.90625 75.308594 220.90625 L 74.898438 220.90625 C 72.964844 220.90625 71.410156 219.335938 71.410156 217.417969 " fill-opacity="1" fill-rule="nonzero"/><path fill="currentColor" d="M 193.34375 304.007812 L 181.667969 303.992188 L 181.683594 291.382812 L 193.34375 291.382812 Z M 200.140625 307.679688 C 200.140625 307.679688 200.140625 307.679688 200.140625 307.664062 L 200.140625 287.695312 C 200.140625 285.671875 198.628906 284.027344 196.742188 284.027344 L 178.496094 284.027344 C 178.433594 284.027344 178.359375 284.027344 178.285156 284.027344 C 177.757812 284.027344 177.242188 284.148438 176.789062 284.386719 C 175.65625 284.976562 174.871094 286.246094 174.871094 287.695312 C 174.871094 287.816406 174.871094 287.9375 174.886719 288.042969 L 174.871094 307.664062 C 174.855469 309.6875 176.382812 311.332031 178.253906 311.332031 L 196.742188 311.347656 C 198.613281 311.347656 200.140625 309.703125 200.140625 307.679688 " fill-opacity="1" fill-rule="nonzero"/><path fill="currentColor" d="M 146.339844 309.054688 L 146.339844 286.320312 C 146.339844 284.402344 147.910156 282.832031 149.828125 282.832031 L 150.25 282.832031 C 152.171875 282.832031 153.742188 284.402344 153.742188 286.320312 L 153.742188 309.054688 C 153.742188 310.972656 152.171875 312.527344 150.25 312.527344 L 149.828125 312.527344 C 147.910156 312.527344 146.339844 310.972656 146.339844 309.054688 " fill-opacity="1" fill-rule="nonzero"/><path fill="currentColor" d="M 118.414062 304.007812 L 106.738281 303.992188 L 106.738281 291.382812 L 118.414062 291.382812 Z M 125.210938 307.679688 C 125.210938 307.679688 125.210938 307.679688 125.210938 307.664062 L 125.210938 287.695312 C 125.210938 285.671875 123.683594 284.027344 121.8125 284.027344 L 103.566406 284.027344 C 103.492188 284.027344 103.414062 284.027344 103.355469 284.027344 C 102.8125 284.027344 102.3125 284.148438 101.859375 284.386719 C 100.710938 284.976562 99.925781 286.246094 99.925781 287.695312 C 99.925781 287.816406 99.941406 287.9375 99.941406 288.042969 L 99.925781 307.664062 C 99.925781 309.6875 101.453125 311.332031 103.324219 311.332031 L 121.8125 311.347656 C 123.683594 311.347656 125.210938 309.703125 125.210938 307.679688 " fill-opacity="1" fill-rule="nonzero"/><path fill="currentColor" d="M 71.410156 309.054688 L 71.410156 286.320312 C 71.410156 284.402344 72.964844 282.832031 74.898438 282.832031 L 75.308594 282.832031 C 77.242188 282.832031 78.796875 284.402344 78.796875 286.320312 L 78.796875 309.054688 C 78.796875 310.972656 77.242188 312.527344 75.308594 312.527344 L 74.898438 312.527344 C 72.964844 312.527344 71.410156 310.972656 71.410156 309.054688 " fill-opacity="1" fill-rule="nonzero"/><path fill="currentColor" d="M 305.730469 82.449219 L 294.054688 82.4375 L 294.070312 69.824219 L 305.730469 69.824219 Z M 312.527344 86.121094 L 312.527344 66.140625 C 312.527344 64.113281 311.015625 62.46875 309.128906 62.46875 L 290.882812 62.46875 C 290.808594 62.46875 290.746094 62.46875 290.671875 62.46875 C 290.144531 62.46875 289.628906 62.589844 289.175781 62.832031 C 288.042969 63.421875 287.257812 64.6875 287.257812 66.140625 C 287.257812 66.261719 287.257812 66.378906 287.273438 66.488281 L 287.257812 86.105469 C 287.242188 88.128906 288.769531 89.777344 290.640625 89.777344 L 309.128906 89.792969 C 311 89.792969 312.527344 88.144531 312.527344 86.121094 " fill-opacity="1" fill-rule="nonzero"/><path fill="currentColor" d="M 305.730469 256.460938 L 294.054688 256.460938 L 294.070312 243.835938 L 305.730469 243.835938 Z M 312.527344 260.148438 C 312.527344 260.148438 312.527344 260.148438 312.527344 260.132812 L 312.527344 240.164062 C 312.527344 238.140625 311.015625 236.496094 309.128906 236.496094 L 290.882812 236.496094 C 290.808594 236.496094 290.746094 236.480469 290.671875 236.480469 C 290.144531 236.480469 289.628906 236.617188 289.175781 236.855469 C 288.042969 237.445312 287.257812 238.699219 287.257812 240.164062 C 287.257812 240.285156 287.257812 240.390625 287.273438 240.511719 L 287.257812 260.117188 C 287.242188 262.15625 288.769531 263.800781 290.640625 263.800781 L 309.128906 263.816406 C 311 263.816406 312.527344 262.171875 312.527344 260.148438 " fill-opacity="1" fill-rule="nonzero"/><path fill="currentColor" d="M 305.730469 169.449219 L 294.054688 169.449219 L 294.070312 156.835938 L 305.730469 156.835938 Z M 312.527344 173.132812 C 312.527344 173.117188 312.527344 173.117188 312.527344 173.117188 L 312.527344 153.152344 C 312.527344 151.128906 311.015625 149.480469 309.128906 149.480469 L 290.882812 149.480469 C 290.808594 149.480469 290.746094 149.464844 290.671875 149.464844 C 290.144531 149.464844 289.628906 149.601562 289.175781 149.84375 C 288.042969 150.433594 287.257812 151.703125 287.257812 153.152344 C 287.257812 153.273438 287.257812 153.378906 287.273438 153.5 L 287.257812 173.117188 C 287.242188 175.144531 288.769531 176.789062 290.640625 176.789062 L 309.128906 176.804688 C 311 176.804688 312.527344 175.15625 312.527344 173.132812 " fill-opacity="1" fill-rule="nonzero"/><path fill="currentColor" d="M 296.199219 131.582031 L 296.199219 108.867188 C 296.199219 106.933594 297.753906 105.378906 299.6875 105.378906 L 300.097656 105.378906 C 302.03125 105.378906 303.585938 106.933594 303.585938 108.867188 L 303.585938 131.582031 C 303.585938 133.5 302.03125 135.074219 300.097656 135.074219 L 299.6875 135.074219 C 297.753906 135.074219 296.199219 133.5 296.199219 131.582031 " fill-opacity="1" fill-rule="nonzero"/><path fill="currentColor" d="M 258.726562 88.671875 L 258.726562 65.941406 C 258.726562 64.023438 260.296875 62.46875 262.214844 62.46875 L 262.640625 62.46875 C 264.558594 62.46875 266.128906 64.023438 266.128906 65.941406 L 266.128906 88.671875 C 266.128906 90.59375 264.558594 92.164062 262.640625 92.164062 L 262.214844 92.164062 C 260.296875 92.164062 258.726562 90.59375 258.726562 88.671875 " fill-opacity="1" fill-rule="nonzero"/><path fill="currentColor" d="M 268.273438 126.539062 L 256.582031 126.523438 L 256.597656 113.914062 L 268.273438 113.914062 Z M 275.070312 130.222656 C 275.070312 130.210938 275.070312 130.210938 275.070312 130.210938 L 275.070312 110.242188 C 275.070312 108.21875 273.542969 106.570312 271.671875 106.570312 L 253.425781 106.570312 C 253.351562 106.558594 253.273438 106.558594 253.199219 106.558594 C 252.671875 106.558594 252.15625 106.691406 251.71875 106.917969 C 250.570312 107.523438 249.785156 108.777344 249.785156 110.242188 C 249.785156 110.363281 249.785156 110.46875 249.800781 110.589844 L 249.785156 130.195312 C 249.785156 132.234375 251.3125 133.863281 253.183594 133.878906 L 271.65625 133.894531 C 273.542969 133.894531 275.070312 132.25 275.070312 130.222656 " fill-opacity="1" fill-rule="nonzero"/><path fill="currentColor" d="M 258.726562 174.492188 L 258.726562 151.777344 C 258.726562 149.859375 260.296875 148.289062 262.214844 148.289062 L 262.640625 148.289062 C 264.558594 148.289062 266.128906 149.859375 266.128906 151.777344 L 266.128906 174.492188 C 266.128906 176.425781 264.558594 177.984375 262.640625 177.984375 L 262.214844 177.984375 C 260.296875 177.984375 258.726562 176.425781 258.726562 174.492188 " fill-opacity="1" fill-rule="nonzero"/><path fill="currentColor" d="M 258.726562 260.328125 L 258.726562 237.613281 C 258.726562 235.679688 260.296875 234.125 262.214844 234.125 L 262.640625 234.125 C 264.558594 234.125 266.128906 235.679688 266.128906 237.613281 L 266.128906 260.328125 C 266.128906 262.261719 264.558594 263.816406 262.640625 263.816406 L 262.214844 263.816406 C 260.296875 263.816406 258.726562 262.261719 258.726562 260.328125 " fill-opacity="1" fill-rule="nonzero"/><path fill="currentColor" d="M 230.800781 82.449219 L 219.125 82.4375 L 219.125 69.824219 L 230.800781 69.824219 Z M 237.597656 86.121094 L 237.597656 66.140625 C 237.597656 64.113281 236.070312 62.46875 234.199219 62.46875 L 215.953125 62.46875 C 215.878906 62.46875 215.800781 62.46875 215.742188 62.46875 C 215.199219 62.46875 214.699219 62.589844 214.246094 62.832031 C 213.097656 63.421875 212.3125 64.6875 212.3125 66.140625 C 212.3125 66.261719 212.328125 66.378906 212.328125 66.488281 L 212.3125 86.105469 C 212.3125 88.128906 213.839844 89.777344 215.710938 89.777344 L 234.199219 89.792969 C 236.070312 89.792969 237.597656 88.144531 237.597656 86.121094 " fill-opacity="1" fill-rule="nonzero"/><path fill="currentColor" d="M 230.800781 256.460938 L 219.125 256.460938 L 219.125 243.835938 L 230.800781 243.835938 Z M 237.597656 260.148438 C 237.597656 260.148438 237.597656 260.148438 237.597656 260.132812 L 237.597656 240.164062 C 237.597656 238.140625 236.070312 236.496094 234.199219 236.496094 L 215.953125 236.496094 C 215.878906 236.496094 215.800781 236.480469 215.742188 236.480469 C 215.199219 236.480469 214.699219 236.617188 214.246094 236.855469 C 213.097656 237.445312 212.3125 238.699219 212.3125 240.164062 C 212.3125 240.285156 212.328125 240.390625 212.328125 240.511719 L 212.3125 260.117188 C 212.3125 262.15625 213.839844 263.800781 215.710938 263.800781 L 234.199219 263.816406 C 236.070312 263.816406 237.597656 262.171875 237.597656 260.148438 " fill-opacity="1" fill-rule="nonzero"/><path fill="currentColor" d="M 230.800781 169.449219 L 219.125 169.449219 L 219.125 156.835938 L 230.800781 156.835938 Z M 237.597656 173.132812 C 237.597656 173.117188 237.597656 173.117188 237.597656 173.117188 L 237.597656 153.152344 C 237.597656 151.128906 236.070312 149.480469 234.199219 149.480469 L 215.953125 149.480469 C 215.878906 149.480469 215.800781 149.464844 215.742188 149.464844 C 215.199219 149.464844 214.699219 149.601562 214.246094 149.84375 C 213.097656 150.433594 212.3125 151.703125 212.3125 153.152344 C 212.3125 153.273438 212.328125 153.378906 212.328125 153.5 L 212.3125 173.117188 C 212.3125 175.144531 213.839844 176.789062 215.710938 176.789062 L 234.199219 176.804688 C 236.070312 176.804688 237.597656 175.15625 237.597656 173.132812 " fill-opacity="1" fill-rule="nonzero"/><path fill="currentColor" d="M 221.253906 131.582031 L 221.253906 108.867188 C 221.253906 106.933594 222.824219 105.378906 224.742188 105.378906 L 225.167969 105.378906 C 227.085938 105.378906 228.65625 106.933594 228.65625 108.867188 L 228.65625 131.582031 C 228.65625 133.5 227.085938 135.074219 225.167969 135.074219 L 224.742188 135.074219 C 222.824219 135.074219 221.253906 133.5 221.253906 131.582031 " fill-opacity="1" fill-rule="nonzero"/><path fill="currentColor" d="M 296.199219 217.417969 L 296.199219 194.6875 C 296.199219 192.769531 297.753906 191.214844 299.6875 191.214844 L 300.097656 191.214844 C 302.03125 191.214844 303.585938 192.769531 303.585938 194.6875 L 303.585938 217.417969 C 303.585938 219.335938 302.03125 220.90625 300.097656 220.90625 L 299.6875 220.90625 C 297.753906 220.90625 296.199219 219.335938 296.199219 217.417969 " fill-opacity="1" fill-rule="nonzero"/><path fill="currentColor" d="M 268.273438 212.375 L 256.582031 212.359375 L 256.597656 199.746094 L 268.273438 199.746094 Z M 275.070312 216.042969 L 275.070312 196.078125 C 275.070312 194.039062 273.542969 192.390625 271.671875 192.390625 L 253.425781 192.390625 C 253.351562 192.390625 253.273438 192.390625 253.199219 192.390625 C 252.671875 192.390625 252.15625 192.527344 251.71875 192.753906 C 250.570312 193.359375 249.785156 194.613281 249.785156 196.078125 C 249.785156 196.183594 249.785156 196.304688 249.800781 196.410156 L 249.785156 216.027344 C 249.785156 218.050781 251.3125 219.699219 253.183594 219.699219 L 271.65625 219.714844 C 273.542969 219.730469 275.070312 218.082031 275.070312 216.042969 " fill-opacity="1" fill-rule="nonzero"/><path fill="currentColor" d="M 221.253906 217.417969 L 221.253906 194.6875 C 221.253906 192.769531 222.824219 191.214844 224.742188 191.214844 L 225.167969 191.214844 C 227.085938 191.214844 228.65625 192.769531 228.65625 194.6875 L 228.65625 217.417969 C 228.65625 219.335938 227.085938 220.90625 225.167969 220.90625 L 224.742188 220.90625 C 222.824219 220.90625 221.253906 219.335938 221.253906 217.417969 " fill-opacity="1" fill-rule="nonzero"/><path fill="currentColor" d="M 296.199219 309.054688 L 296.199219 286.320312 C 296.199219 284.402344 297.753906 282.832031 299.6875 282.832031 L 300.097656 282.832031 C 302.03125 282.832031 303.585938 284.402344 303.585938 286.320312 L 303.585938 309.054688 C 303.585938 310.972656 302.03125 312.527344 300.097656 312.527344 L 299.6875 312.527344 C 297.753906 312.527344 296.199219 310.972656 296.199219 309.054688 " fill-opacity="1" fill-rule="nonzero"/><path fill="currentColor" d="M 268.273438 304.007812 L 256.582031 303.992188 L 256.597656 291.382812 L 268.273438 291.382812 Z M 275.070312 307.679688 C 275.070312 307.679688 275.070312 307.679688 275.070312 307.664062 L 275.070312 287.695312 C 275.070312 285.671875 273.542969 284.027344 271.671875 284.027344 L 253.425781 284.027344 C 253.351562 284.027344 253.273438 284.027344 253.199219 284.027344 C 252.671875 284.027344 252.15625 284.148438 251.71875 284.386719 C 250.570312 284.976562 249.785156 286.246094 249.785156 287.695312 C 249.785156 287.816406 249.785156 287.9375 249.800781 288.042969 L 249.785156 307.664062 C 249.785156 309.6875 251.3125 311.332031 253.183594 311.332031 L 271.65625 311.347656 C 273.542969 311.347656 275.070312 309.703125 275.070312 307.679688 " fill-opacity="1" fill-rule="nonzero"/><path fill="currentColor" d="M 221.253906 309.054688 L 221.253906 286.320312 C 221.253906 284.402344 222.824219 282.832031 224.742188 282.832031 L 225.167969 282.832031 C 227.085938 282.832031 228.65625 284.402344 228.65625 286.320312 L 228.65625 309.054688 C 228.65625 310.972656 227.085938 312.527344 225.167969 312.527344 L 224.742188 312.527344 C 222.824219 312.527344 221.253906 310.972656 221.253906 309.054688 " fill-opacity="1" fill-rule="nonzero"/><g clip-path="url(#34ece39b24)"><path fill="currentColor" d="M 49.296875 325.699219 L 325.699219 325.699219 L 325.699219 49.296875 L 49.296875 49.296875 Z M 333.265625 333.265625 L 41.730469 333.265625 L 41.730469 41.730469 L 333.265625 41.730469 L 333.265625 333.265625 " fill-opacity="1" fill-rule="nonzero"/></g></svg>