<svg viewBox="0 0 168 24" fill="none" xmlns="http://www.w3.org/2000/svg">
<rect fill="currentColor"/>
<path d="M2 4.89287C3.91596 4.89287 5.96888 5.05103 7.93621 5.05103C13.4122 5.05103 18.8743 4.7347 24.3457 4.7347C29.6113 4.7347 34.8931 4.02762 40.1481 4.3393C47.739 4.78952 55.2195 4.72987 62.823 4.45353C66.7988 4.30903 70.768 4.20892 74.7366 3.9439C78.6957 3.67951 82.6332 3.07445 86.6091 3.00371C89.4662 2.95287 92.1532 3.43814 94.9732 3.61878C97.9662 3.8105 100.85 3.96633 103.852 3.82088C107.753 3.63186 111.435 4.08336 115.251 4.74349C119.57 5.49053 123.748 6 128.152 6C130.71 6 133.024 5.54902 135.416 4.81379C138.229 3.94881 141.05 4.06935 143.996 3.82088C146.165 3.63794 148.065 4.10206 150.128 4.10206C154.127 4.10206 158.053 3.78573 162 3.78573" stroke="#2563EB" stroke-linecap="square"/>
<path d="M15 8.69565C19.3854 8.69565 23.7262 8.45495 28.0984 8.31159C31.0559 8.21462 33.9246 8.5968 36.8846 8.56522C38.523 8.54774 40.2845 8.31213 41.93 8.2029C43.9327 8.06994 45.9673 8.30435 47.9779 8.30435C50.6383 8.30435 53.2477 8.17391 55.9016 8.17391C59.1399 8.17391 62.3149 7.78261 65.5395 7.78261C68.3412 7.78261 70.9924 8.43478 73.7974 8.43478C75.2383 8.43478 77.1354 8.38666 78.3684 7.91304C79.8246 7.35374 81.0286 7 82.7346 7C84.5549 7 86.5225 7.31105 88.3405 7.45652C91.1768 7.68348 94.0387 7.8184 96.8895 7.94203C99.3207 8.04746 101.614 7.91304 103.983 7.91304C107.017 7.91304 110.057 7.73357 113.082 8.07246C114.072 8.18335 115.2 8.27203 116.144 8.49275C119.014 9.16379 122.035 9.11244 125.016 9.41304C128.406 9.75478 131.843 10 135.268 10C135.865 10 136.328 9.73913 136.907 9.73913C138.115 9.73913 139.258 9.67133 140.454 9.60145C143.05 9.44974 145.473 10 148.076 10C148.715 10 149.367 9.82777 149.962 9.67391C150.553 9.52135 151.679 9.64829 152 9.21739" stroke="#2563EB" stroke-opacity="0.67" stroke-linecap="square"/>
</svg>
