<svg viewBox="0 0 167 10" fill="none" xmlns="http://www.w3.org/2000/svg">
<g id="underline-vector">
<path id="line" d="M2.23547 7.83235C2.55374 7.51408 3.06063 7.39546 3.44367 7.15974C4.22279 6.68028 5.46239 6.50625 6.13409 5.90172C6.28956 5.76179 6.57194 5.81045 6.76933 5.72734C7.11947 5.57991 7.65373 5.46458 8.0398 5.39104C8.52363 5.29888 8.94272 5.25403 9.46597 5.25403C10.1266 5.25403 10.7767 5.07472 11.434 5.03605C12.1575 4.9935 12.9683 5.16864 13.6698 4.97378C14.3155 4.7944 14.9213 4.88039 15.5692 4.7994C16.4367 4.69096 17.2904 4.50969 18.16 4.37591C18.4466 4.33181 18.9435 4.14826 19.2187 4.30117C19.6121 4.5197 20.1749 4.46932 20.62 4.46932C22.1147 4.46932 23.6094 4.46932 25.104 4.46932C25.9525 4.46932 26.819 4.58142 27.6823 4.58142C28.4112 4.58142 28.9519 4.96308 29.6379 5.19175C30.4446 5.46065 31.6066 5.81453 32.4466 5.81453C32.931 5.81453 33.3674 6.01471 33.8479 6.03873C36.1571 6.15419 38.5252 6.7508 40.8168 6.94177C41.9209 7.03378 43.0716 6.97375 44.1549 7.22202C44.9254 7.39859 45.6828 7.79818 46.453 7.93822C47.2595 8.08486 48.008 8.28075 48.8694 8.28075C51.3356 8.28075 53.8018 8.28075 56.268 8.28075C59.1928 8.28075 62.1204 8.28075 65.1365 8.28075C65.8861 8.28075 66.5173 8.16865 67.2539 8.16865C67.5971 8.16865 68.112 7.81652 68.4621 7.69533C69.6128 7.29702 70.9102 7.04764 72.1303 7.04764C74.1535 7.04764 76.2174 6.37529 78.2398 6.26294C79.2062 6.20925 80.1512 6.07594 81.1295 6.01382C82.2383 5.94342 83.2679 5.60115 84.3742 5.47823C85.074 5.40047 85.6741 5.25403 86.392 5.25403C86.7947 5.25403 87.1975 5.25403 87.6002 5.25403C88.1084 5.25403 88.6425 5.02983 89.1696 5.02983C90.361 5.02983 91.6222 4.53547 92.8129 4.46932C94.4138 4.38038 96.029 3.90882 97.6332 3.90882C98.1792 3.90882 98.7614 4.17965 99.3147 3.93373C100.472 3.41942 101.676 3.06658 102.958 2.78158C103.918 2.56825 104.927 2.65716 105.904 2.45151C106.532 2.3192 107.255 2.22731 107.89 2.22731C108.959 2.22731 110.008 2.00311 111.085 2.00311C111.481 2.00311 111.894 1.98076 112.318 2.00311C113.609 2.07105 115.138 2.00509 116.416 1.77268C117.032 1.66081 117.612 1.6668 118.247 1.6668C120.637 1.6668 123.005 1.8971 125.391 1.99065C126.971 2.05264 128.564 1.9154 130.142 2.00311C130.545 2.02547 131.358 2.40913 131.749 2.56361C132.23 2.75357 132.882 2.9836 133.393 3.01201C133.948 3.04282 134.508 3.46042 135.1 3.46042C136.256 3.46042 137.368 3.6129 138.513 3.77181C139.011 3.84108 139.445 4.02092 139.951 4.02092C140.364 4.02092 140.686 4.35722 141.072 4.35722C141.835 4.35722 142.624 4.46932 143.42 4.46932C144.08 4.46932 144.897 4.35308 145.55 4.49423C146.071 4.60687 146.611 4.80563 147.144 4.80563C147.459 4.80563 147.788 4.94098 148.079 4.91773C149.452 4.80784 150.781 4.46932 152.176 4.46932C152.449 4.46932 153.35 4.13582 153.571 4.41327C153.652 4.5145 154.593 4.58142 154.749 4.58142C156.281 4.58142 158.542 4.0514 159.874 5.11702C160.164 5.34905 160.729 5.34631 161.082 5.50314C161.401 5.64487 162.094 5.48167 162.315 5.75848C162.476 5.95958 163.466 5.81453 163.717 5.81453C164.203 5.81453 164.617 6.03873 165.118 6.03873" stroke="url(#paint0_linear_58_22)" stroke-width="3" stroke-linecap="round"/>
</g>
<defs>
<linearGradient id="paint0_linear_58_22" x1="-9.71501" y1="8.50015" x2="166.51" y2="16.3574" gradientUnits="userSpaceOnUse">
<stop stop-color="#2563EB"/>
<stop offset="1" stop-color="#9333EA"/>
<stop offset="1" stop-color="#9333EA"/>
</linearGradient>
</defs>
</svg>
